<?xml version="1.0" encoding="UTF-8"?>
<svg id="Layer_1" xmlns="http://www.w3.org/2000/svg" version="1.1" viewBox="0 0 261.7 261.7">
  <!-- Generator: Adobe Illustrator 29.3.1, SVG Export Plug-In . SVG Version: 2.1.0 Build 151)  -->
  <defs>
    <style>
      .st0 {
        fill: #fff;
      }
    </style>
  </defs>
  <path class="st0" d="M34.1,14.6C22.7,21.4.2,47.2,0,54v11.2C0,79.4,13.3,91.9,25.4,91.9s26.6-12,26.6-26.3c0,14.3,11.7,26.3,26.1,26.3s25.8-12,25.8-26.3c0,14.3,12.4,26.3,26.9,26.3h.3c14.5,0,26.9-12,26.9-26.3,0,14.3,11.3,26.3,25.8,26.3s26.1-12,26.1-26.3c0,14.3,12.1,26.3,26.6,26.3s25.4-12.5,25.4-26.7v-11.2c-.2-6.8-22.7-32.6-34.1-39.4-35.5-1.2-60.1-1.5-96.7-1.5-36.7,0-86.6.6-96.7,1.5h0ZM103.7,85.2c-1.4,2.4-3.1,4.6-5.1,6.6-5.5,5.3-13,8.7-21.2,8.7-8,0-15.6-3.1-21.3-8.7-2-1.9-3.5-4-4.9-6.4h0c-1.4,2.4-3.3,4.5-5.3,6.4-5.7,5.6-13.3,8.7-21.3,8.7-1,0-2-.3-2.9-.6-1.2,12.1-1.7,23.7-1.8,32.2h0c0,4.3,0,7.9,0,12.8.2,25.5-2.5,82.5,11.2,96.5,21.3,5,60.5,7.2,99.8,7.2h0c39.3,0,78.5-2.3,99.8-7.2,13.7-14,11-71.1,11.2-96.5,0-4.9,0-8.4,0-12.7h0c-.2-8.5-.7-20.1-1.8-32.2-.8.3-1.9.6-2.9.6-8,0-15.6-3.1-21.3-8.7-2-1.9-3.9-4-5.3-6.4h0c-1.4,2.4-2.9,4.5-4.9,6.4-5.7,5.6-13.3,8.7-21.3,8.7-8.3,0-15.8-3.3-21.2-8.7-2-1.9-3.7-4.2-5.1-6.6-1.4,2.4-3.1,4.6-5.1,6.6-5.7,5.6-13.3,8.7-21.3,8.7-.3,0-.6,0-.9,0h0c-.3,0-.6,0-.9,0-8,0-15.6-3.1-21.3-8.7-2-1.9-3.7-4.2-5.1-6.6h0ZM81.8,113.5h0s0,0,0,0c8.7,0,16.3,0,25.9,10.4,7.5-.8,15.3-1.2,23.2-1.2h0c7.8,0,15.7.4,23.2,1.2,9.5-10.4,17.2-10.4,25.9-10.4h0,0c4.1,0,20.4,0,31.8,32l12.2,43.9c9.1,32.7-2.9,33.5-17.8,33.5-22.2-.8-34.4-16.9-34.4-33-12.3,2-26.6,3-40.9,3h0c-14.3,0-28.6-1-40.9-3,0,16.1-12.3,32.2-34.4,33-14.9,0-26.9-.8-17.8-33.5l12.2-43.9c11.4-32,27.8-32,31.8-32h0ZM130.9,138.6h0s-23.3,21.4-27.5,29l15.3-.6v13.3c0,.6,6.1.4,12.3,0h0c6.1.3,12.3.5,12.3,0v-13.3l15.3.6c-4.2-7.6-27.5-29-27.5-29h0s0,0,0,0h0Z"/>
</svg>