<?xml version="1.0" encoding="UTF-8"?>
<svg id="Layer_1" xmlns="http://www.w3.org/2000/svg" version="1.1" viewBox="0 0 521 512">
  <!-- Generator: Adobe Illustrator 29.3.1, SVG Export Plug-In . SVG Version: 2.1.0 Build 151)  -->
  <defs>
    <style>
      .st0 {
        fill: #fff;
      }
    </style>
  </defs>
  <g>
    <path class="st0" d="M153.4,76.1c0,40.9-33.1,74.1-73.9,74.1S5.5,117,5.5,76.1,38.6,2.1,79.4,2.1s73.9,33.2,73.9,74.1ZM123.4,76.2c0-24.3-19.7-44.1-44-44.1s-44,19.7-44,44.1,19.7,44.1,44,44.1,44-19.7,44-44.1Z"/>
    <path class="st0" d="M145.2,161v349H13.5V161h131.7ZM115.3,191H43.4v289h71.9V191Z"/>
  </g>
  <path class="st0" d="M516.5,269v241h-132.7v-197.5c0-17-23.4-32.8-39.4-32.6s-38.4,18.1-38.4,36.6v193.5h-131.7V161h126.8v19l20.3-13.2c74.5-40.9,171-1.3,191.4,81.5l3.9,20.6ZM486.6,480v-207.5c-9.7-100.8-143.1-125.1-192.1-38.5h-23.5v-43h-66.9v289h71.9v-164.5c0-46,52.5-76.6,94.3-60.5,19.2,7.3,43.4,33,43.4,54.5v170.5h72.9Z"/>
</svg>